<?xml version="1.0" standalone="no"?>
<!DOCTYPE svg PUBLIC "-//W3C//DTD SVG 20010904//EN"
 "http://www.w3.org/TR/2001/REC-SVG-20010904/DTD/svg10.dtd">
<svg version="1.0" xmlns="http://www.w3.org/2000/svg"
 width="548.000000pt" height="560.000000pt" viewBox="0 0 548.000000 560.000000"
 preserveAspectRatio="xMidYMid meet">

<g transform="translate(0.000000,560.000000) scale(0.100000,-0.100000)"
fill="#000000" stroke="none">
<path d="M1415 4162 c-12 -12 -3 -19 25 -20 17 0 30 4 30 9 0 6 -4 7 -10 4 -5
-3 -10 -2 -10 3 0 9 -27 12 -35 4z"/>
<path d="M4750 3870 c0 -6 7 -10 15 -10 8 0 15 2 15 4 0 2 -7 6 -15 10 -8 3
-15 1 -15 -4z"/>
<path d="M4860 3865 c0 -17 2 -18 24 -9 18 7 12 24 -10 24 -8 0 -14 -7 -14
-15z"/>
<path d="M4794 3850 c1 -8 9 -15 18 -15 9 0 20 -4 24 -8 4 -4 14 -7 21 -7 12
0 11 3 -1 16 -9 9 -24 13 -35 9 -12 -3 -21 -1 -24 7 -2 8 -4 7 -3 -2z"/>
<path d="M2050 3839 c0 -5 5 -7 10 -4 6 3 10 8 10 11 0 2 -4 4 -10 4 -5 0 -10
-5 -10 -11z"/>
<path d="M4740 3844 c0 -1 6 -7 14 -13 10 -9 15 -8 19 2 3 8 -3 13 -14 13 -11
0 -19 -1 -19 -2z"/>
<path d="M2023 3823 c1 -25 5 -27 27 -13 13 8 13 10 -2 10 -9 0 -18 6 -21 13
-3 6 -4 2 -4 -10z"/>
<path d="M1491 3735 c-1 -15 20 -35 36 -35 7 0 13 5 13 10 0 6 -9 10 -19 10
-11 0 -22 6 -24 13 -3 6 -6 7 -6 2z"/>
<path d="M1961 3714 c0 -11 3 -14 6 -6 3 7 2 16 -1 19 -3 4 -6 -2 -5 -13z"/>
<path d="M3931 3684 c0 -11 3 -14 6 -6 3 7 2 16 -1 19 -3 4 -6 -2 -5 -13z"/>
<path d="M1538 3379 c-14 -6 -30 -18 -35 -27 -4 -9 -10 -213 -13 -452 l-5
-435 -588 -5 c-568 -5 -589 -6 -603 -24 -12 -17 -14 -114 -14 -597 0 -553 1
-578 19 -600 l19 -24 719 -3 c395 -1 728 0 740 3 12 3 32 15 43 27 19 21 20
34 20 340 l0 318 940 0 940 0 0 -320 c0 -305 1 -321 20 -340 11 -11 30 -22 42
-25 13 -3 152 -5 310 -3 l286 3 21 24 c21 24 21 31 21 601 0 481 -2 579 -14
596 -12 16 -30 20 -133 24 l-118 5 -5 437 -5 437 -23 23 -23 23 -1267 2 c-809
1 -1277 -2 -1294 -8z m2532 -154 l0 -85 -1252 2 -1253 3 -1 75 c-1 41 0 78 3
83 2 4 566 7 1254 7 l1249 0 0 -85z m-960 -390 c0 -9 -10 -15 -25 -15 -14 0
-115 0 -225 0 -110 0 -204 0 -210 0 -5 0 -10 7 -10 15 0 13 33 15 235 15 202
0 235 -2 235 -15z m-390 -80 c0 -12 -21 -15 -122 -16 -68 -1 -136 -2 -153 -3
-21 -1 -31 4 -33 17 -3 16 9 17 152 17 132 0 156 -2 156 -15z m550 -75 c0 -19
-7 -20 -160 -20 -153 0 -160 1 -160 20 0 19 7 20 160 20 153 0 160 -1 160 -20z
m310 -85 c0 -13 -46 -15 -350 -15 -304 0 -350 2 -350 15 0 13 46 15 350 15
304 0 350 -2 350 -15z m-1180 -230 c0 -13 -23 -15 -150 -15 -127 0 -150 2
-150 15 0 13 23 15 150 15 127 0 150 -2 150 -15z m-640 -585 l0 -490 -665 0
-665 0 0 490 0 490 665 0 665 0 0 -490z m490 430 c0 -19 -7 -20 -120 -20 -113
0 -120 1 -120 20 0 19 7 20 120 20 113 0 120 -1 120 -20z m150 -160 c0 -20 -5
-21 -112 -18 -98 3 -113 5 -116 21 -3 15 7 17 112 17 110 0 116 -1 116 -20z
m1697 -10 c6 -24 16 -25 33 -5 20 24 54 0 45 -32 -5 -23 -4 -25 19 -19 19 5
28 1 37 -16 9 -17 9 -24 -5 -33 -22 -16 -20 -25 4 -25 16 0 20 -7 20 -30 0
-23 -4 -30 -20 -30 -24 0 -26 -16 -4 -28 13 -8 14 -13 4 -31 -9 -18 -17 -21
-36 -17 -22 6 -24 4 -18 -18 8 -32 -27 -54 -50 -31 -20 20 -26 19 -26 -5 0
-16 -7 -20 -30 -20 -23 0 -30 4 -30 20 0 11 -4 20 -10 20 -5 0 -10 -4 -10 -9
0 -16 -28 -20 -46 -6 -15 11 -16 15 -5 29 11 13 11 17 -4 22 -9 4 -20 1 -25
-6 -5 -9 -12 -6 -24 11 -14 20 -14 25 -1 39 20 22 19 30 -5 30 -16 0 -20 7
-20 30 0 23 4 30 20 30 24 0 26 9 4 25 -25 17 2 56 33 49 19 -5 22 -2 20 23
-2 24 2 28 26 31 15 2 27 -1 27 -7 0 -19 17 -12 23 9 3 12 14 20 27 20 13 0
24 -8 27 -20z m-1767 -65 c0 -22 -4 -25 -40 -25 -36 0 -40 3 -40 25 0 23 4 25
40 25 36 0 40 -2 40 -25z m-1960 -135 c0 -113 -1 -120 -20 -120 -19 0 -20 7
-20 120 0 113 1 120 20 120 19 0 20 -7 20 -120z m3760 -550 c0 -18 -7 -20 -60
-20 -53 0 -60 2 -60 20 0 18 7 20 60 20 53 0 60 -2 60 -20z"/>
<path d="M1193 2028 c-43 -69 -241 -481 -236 -493 3 -9 15 -15 27 -13 17 2 47
54 143 245 71 141 120 249 117 258 -7 18 -40 20 -51 3z"/>
<path d="M711 1873 c-55 -43 -101 -85 -101 -93 1 -14 172 -154 205 -166 15 -6
45 11 45 27 0 4 -36 36 -80 69 -44 33 -80 65 -80 70 0 5 36 37 80 70 44 33 80
64 80 68 0 12 -23 32 -36 32 -6 0 -57 -35 -113 -77z"/>
<path d="M1357 1943 c-19 -19 0 -46 68 -97 41 -31 75 -61 75 -66 0 -5 -34 -35
-75 -66 -58 -44 -75 -62 -73 -78 2 -14 10 -21 24 -20 27 0 214 145 214 165 0
16 -194 169 -215 169 -6 0 -15 -3 -18 -7z"/>
<path d="M4040 1891 c-7 -15 -6 -23 6 -35 20 -21 27 -20 49 4 15 16 15 22 5
35 -17 21 -47 19 -60 -4z"/>
<path d="M571 3324 c0 -11 3 -14 6 -6 3 7 2 16 -1 19 -3 4 -6 -2 -5 -13z"/>
<path d="M4617 3172 c1 -8 3 -16 3 -18 0 -2 4 -4 8 -4 5 0 9 7 9 15 0 8 -4 12
-8 9 -4 -2 -9 -1 -12 3 -2 5 -2 2 0 -5z"/>
<path d="M4590 3160 c0 -5 5 -10 11 -10 5 0 7 5 4 10 -3 6 -8 10 -11 10 -2 0
-4 -4 -4 -10z"/>
<path d="M955 2791 c-3 -5 -2 -12 3 -15 5 -3 9 1 9 9 0 17 -3 19 -12 6z"/>
<path d="M2700 1740 l0 -40 120 0 120 0 0 40 0 40 -120 0 -120 0 0 -40z"/>
</g>
</svg>
