<?xml version="1.0" standalone="no"?>
<!DOCTYPE svg PUBLIC "-//W3C//DTD SVG 20010904//EN"
 "http://www.w3.org/TR/2001/REC-SVG-20010904/DTD/svg10.dtd">
<svg version="1.0" xmlns="http://www.w3.org/2000/svg"
 width="550.000000pt" height="400.000000pt" viewBox="0 0 550.000000 400.000000"
 preserveAspectRatio="xMidYMid meet">

<g transform="translate(0.000000,407.000000) scale(0.100000,-0.100000)"
fill="#000000" stroke="none">
<path d="M3999 3681 c-17 -18 -29 -40 -29 -56 0 -37 50 -85 88 -85 60 0 105
84 69 131 -35 46 -88 50 -128 10z m106 -6 c14 -13 25 -36 25 -50 0 -14 -11
-37 -25 -50 -13 -14 -36 -25 -50 -25 -14 0 -37 11 -50 25 -14 13 -25 36 -25
50 0 14 11 37 25 50 13 14 36 25 50 25 14 0 37 -11 50 -25z"/>
<path d="M4025 3638 c-11 -13 -13 -18 -6 -11 7 6 27 10 45 8 17 -1 22 0 11 2
-11 3 -23 9 -26 14 -3 5 -14 -1 -24 -13z"/>
<path d="M3460 3567 c-21 -11 -26 -22 -31 -73 -7 -74 -10 -80 -54 -94 -44 -14
-45 -37 -2 -48 38 -10 57 -41 57 -98 0 -55 18 -76 66 -78 52 -1 55 27 4 34
-34 5 -35 6 -41 63 -4 39 -13 65 -28 80 -21 23 -21 23 -1 43 13 13 23 41 28
79 7 59 8 60 45 69 20 5 36 14 34 20 -5 16 -49 18 -77 3z"/>
<path d="M3820 3566 c0 -8 15 -17 34 -20 39 -7 46 -20 46 -82 0 -35 6 -50 24
-67 l24 -23 -24 -21 c-19 -17 -24 -31 -24 -70 0 -59 -7 -70 -45 -75 -20 -2
-31 -9 -33 -22 -4 -17 0 -18 34 -13 51 9 63 24 71 88 6 60 22 84 59 93 30 8
29 39 -1 44 -33 6 -55 33 -55 66 0 17 -5 47 -10 67 -8 30 -16 38 -41 43 -47 9
-59 7 -59 -8z"/>
<path d="M4328 3438 l-3 -53 -52 -3 c-53 -3 -53 -3 -53 -37 0 -34 0 -34 53
-37 l52 -3 3 -52 3 -53 35 0 34 0 0 55 0 55 56 0 55 0 -3 33 c-3 31 -4 32 -55
35 l-53 3 0 55 0 54 -34 0 -35 0 -3 -52z m52 -13 l0 -55 55 0 c52 0 55 -1 55
-25 0 -24 -3 -25 -55 -25 l-55 0 0 -56 c0 -47 -3 -55 -17 -52 -14 2 -19 15
-21 56 l-3 52 -55 0 c-51 0 -54 1 -54 25 0 24 3 25 55 25 l55 0 0 55 c0 48 2
55 20 55 18 0 20 -7 20 -55z"/>
<path d="M5051 3253 c-18 -9 -42 -31 -52 -47 -21 -34 -25 -106 -9 -136 9 -17
0 -30 -62 -88 -51 -49 -70 -73 -65 -85 12 -31 41 -18 108 49 59 58 69 65 87
55 32 -17 94 -13 129 9 154 94 27 323 -136 243z m135 -29 c27 -18 44 -56 44
-100 0 -28 -8 -44 -34 -70 -29 -29 -41 -34 -79 -34 -56 0 -92 27 -108 80 -10
32 -9 44 7 77 33 67 108 87 170 47z"/>
<path d="M2790 3136 c0 -26 -5 -35 -21 -39 -21 -6 -21 -6 6 -41 15 -20 30 -36
34 -36 7 0 51 63 51 73 0 4 -7 7 -15 7 -10 0 -15 11 -15 35 0 28 -4 35 -20 35
-16 0 -20 -7 -20 -34z"/>
<path d="M3245 3140 c3 -5 8 -10 11 -10 2 0 4 5 4 10 0 6 -5 10 -11 10 -5 0
-7 -4 -4 -10z"/>
<path d="M3295 3140 c3 -5 8 -10 11 -10 2 0 4 5 4 10 0 6 -5 10 -11 10 -5 0
-7 -4 -4 -10z"/>
<path d="M3485 3140 c3 -5 8 -10 11 -10 2 0 4 5 4 10 0 6 -5 10 -11 10 -5 0
-7 -4 -4 -10z"/>
<path d="M3670 3140 c0 -5 5 -10 10 -10 6 0 10 5 10 10 0 6 -4 10 -10 10 -5 0
-10 -4 -10 -10z"/>
<path d="M3860 3139 c0 -5 5 -7 10 -4 6 3 10 8 10 11 0 2 -4 4 -10 4 -5 0 -10
-5 -10 -11z"/>
<path d="M4050 3139 c0 -5 5 -7 10 -4 6 3 10 8 10 11 0 2 -4 4 -10 4 -5 0 -10
-5 -10 -11z"/>
<path d="M4100 3139 c0 -5 5 -7 10 -4 6 3 10 8 10 11 0 2 -4 4 -10 4 -5 0 -10
-5 -10 -11z"/>
<path d="M2644 3055 c0 -49 1 -71 3 -48 2 23 2 64 0 90 -2 26 -3 8 -3 -42z"/>
<path d="M2284 3106 c-3 -8 -4 -27 -1 -43 3 -24 4 -23 6 9 1 29 5 37 24 41
l22 4 -23 2 c-12 0 -25 -5 -28 -13z"/>
<path d="M2537 3114 c-4 -4 -7 -76 -7 -161 0 -129 -2 -153 -15 -153 -8 0 -15
-3 -15 -7 0 -9 44 -73 50 -73 3 0 18 18 33 40 27 38 27 40 8 40 -20 0 -21 7
-23 157 -3 146 -9 178 -31 157z"/>
<path d="M4370 3099 c0 -5 5 -7 10 -4 6 3 10 8 10 11 0 2 -4 4 -10 4 -5 0 -10
-5 -10 -11z"/>
<path d="M2410 3010 c0 -72 -2 -81 -20 -88 -19 -7 -19 -9 9 -42 l30 -35 25 30
c29 35 32 45 11 45 -12 0 -15 16 -15 85 0 78 -2 85 -20 85 -18 0 -20 -7 -20
-80z"/>
<path d="M4400 3070 c0 -5 5 -10 11 -10 5 0 7 5 4 10 -3 6 -8 10 -11 10 -2 0
-4 -4 -4 -10z"/>
<path d="M2275 3000 c10 -11 20 -20 23 -20 3 0 -3 9 -13 20 -10 11 -20 20 -23
20 -3 0 3 -9 13 -20z"/>
<path d="M2339 3003 c-13 -16 -12 -17 4 -4 9 7 17 15 17 17 0 8 -8 3 -21 -13z"/>
<path d="M3694 2970 c-31 -12 -72 -66 -80 -105 -24 -129 138 -217 235 -126 71
67 56 182 -31 227 -30 15 -91 18 -124 4z m115 -18 c37 -20 71 -73 71 -110 0
-32 -25 -76 -56 -101 -52 -41 -142 -21 -178 39 -35 60 -6 148 57 175 43 19 66
18 106 -3z"/>
<path d="M3760 2893 c0 -19 -6 -22 -42 -25 -36 -2 -44 -7 -46 -25 -3 -21 1
-23 42 -23 39 0 46 -3 46 -20 0 -28 11 -25 45 10 l29 30 -37 38 c-33 33 -37
34 -37 15z m45 -33 c17 -19 17 -21 0 -40 -22 -24 -35 -26 -35 -5 0 11 -12 15
-45 15 -33 0 -45 4 -45 15 0 11 12 15 45 15 25 0 45 5 45 10 0 16 15 12 35
-10z"/>
<path d="M2610 2963 c0 -6 8 -17 18 -24 16 -13 16 -13 2 6 -8 11 -16 22 -17
24 -2 2 -3 0 -3 -6z"/>
<path d="M2706 2954 c-5 -14 -4 -15 9 -4 17 14 19 20 6 20 -5 0 -12 -7 -15
-16z"/>
<path d="M4530 2930 c0 -5 5 -10 10 -10 6 0 10 5 10 10 0 6 -4 10 -10 10 -5 0
-10 -4 -10 -10z"/>
<path d="M2640 2916 c0 -2 8 -10 18 -17 15 -13 16 -12 3 4 -13 16 -21 21 -21
13z"/>
<path d="M2965 2890 c3 -5 8 -10 11 -10 2 0 4 5 4 10 0 6 -5 10 -11 10 -5 0
-7 -4 -4 -10z"/>
<path d="M2895 2830 c-3 -5 -1 -10 4 -10 6 0 11 5 11 10 0 6 -2 10 -4 10 -3 0
-8 -4 -11 -10z"/>
<path d="M4630 2830 c0 -5 5 -10 11 -10 5 0 7 5 4 10 -3 6 -8 10 -11 10 -2 0
-4 -4 -4 -10z"/>
<path d="M4695 2760 c-3 -5 -1 -10 4 -10 6 0 11 5 11 10 0 6 -2 10 -4 10 -3 0
-8 -4 -11 -10z"/>
<path d="M2790 2730 c0 -5 5 -10 10 -10 6 0 10 5 10 10 0 6 -4 10 -10 10 -5 0
-10 -4 -10 -10z"/>
<path d="M4730 2719 c0 -5 5 -7 10 -4 6 3 10 8 10 11 0 2 -4 4 -10 4 -5 0 -10
-5 -10 -11z"/>
<path d="M4760 2690 c0 -5 5 -10 11 -10 5 0 7 5 4 10 -3 6 -8 10 -11 10 -2 0
-4 -4 -4 -10z"/>
<path d="M2720 2659 c0 -5 5 -7 10 -4 6 3 10 8 10 11 0 2 -4 4 -10 4 -5 0 -10
-5 -10 -11z"/>
<path d="M2840 2643 c-8 -3 -18 -11 -22 -17 -4 -6 -8 -284 -8 -618 0 -590 1
-608 19 -618 13 -6 146 -10 365 -10 190 0 346 -4 346 -9 0 -4 -16 -42 -35 -84
l-35 -76 -63 -3 c-47 -2 -62 -7 -62 -18 0 -13 46 -15 355 -15 309 0 355 2 355
15 0 11 -14 16 -58 18 l-57 3 -40 79 c-22 44 -40 82 -40 85 0 3 157 5 349 5
304 0 352 2 365 16 14 14 16 83 16 617 0 362 -4 608 -10 617 -8 13 -117 15
-867 17 -472 1 -865 -1 -873 -4z m1690 -553 l0 -500 -830 0 -830 0 0 500 0
500 830 0 830 0 0 -500z"/>
<path d="M3191 2430 c-18 -8 -21 -13 -12 -24 8 -10 5 -15 -14 -24 -28 -13 -35
-58 -12 -81 10 -11 8 -11 -11 -1 -13 6 -26 9 -29 6 -13 -13 25 -82 57 -104 29
-20 44 -23 87 -19 50 5 57 3 220 -87 133 -72 171 -98 182 -121 33 -71 98 -105
160 -84 31 11 42 29 19 29 -7 0 -1 8 15 18 20 12 27 24 27 49 0 25 4 31 15 27
22 -9 19 34 -5 74 -26 43 -78 65 -134 57 -39 -6 -53 0 -206 83 -138 75 -168
95 -182 123 -25 53 -61 81 -110 85 -24 2 -54 -1 -67 -6z m69 -75 c24 -28 -21
-102 -54 -89 -23 9 -20 19 10 33 22 9 25 17 22 41 -5 33 3 38 22 15z m-50 -10
c0 -9 -7 -18 -16 -22 -18 -7 -39 11 -30 26 11 17 46 13 46 -4z m615 -291 c13
-5 10 -10 -16 -26 -27 -16 -30 -23 -25 -49 5 -27 4 -29 -14 -19 -25 14 -25 24
1 66 22 35 27 38 54 28z m30 -64 c0 -8 -10 -16 -22 -18 -22 -3 -32 16 -16 32
12 11 38 2 38 -14z"/>
<path d="M4130 1965 l0 -125 183 2 182 3 0 120 0 120 -182 3 -183 2 0 -125z"/>
<path d="M2900 1710 l0 -90 190 0 190 0 0 90 0 90 -190 0 -190 0 0 -90z"/>
<path d="M4130 1710 l0 -80 180 0 180 0 0 80 0 80 -180 0 -180 0 0 -80z"/>
<path d="M4890 2550 c0 -5 5 -10 10 -10 6 0 10 5 10 10 0 6 -4 10 -10 10 -5 0
-10 -4 -10 -10z"/>
<path d="M4905 2510 c-3 -5 -1 -10 4 -10 6 0 11 5 11 10 0 6 -2 10 -4 10 -3 0
-8 -4 -11 -10z"/>
<path d="M4905 2460 c3 -5 8 -10 11 -10 2 0 4 5 4 10 0 6 -5 10 -11 10 -5 0
-7 -4 -4 -10z"/>
<path d="M4905 2410 c3 -5 8 -10 11 -10 2 0 4 5 4 10 0 6 -5 10 -11 10 -5 0
-7 -4 -4 -10z"/>
<path d="M1836 2322 c-3 -5 -2 -41 1 -80 6 -71 6 -72 34 -72 25 0 29 4 28 28
-2 23 -2 24 -6 5 -3 -15 -12 -23 -24 -23 -17 0 -19 8 -19 70 0 62 2 70 19 70
12 0 21 -8 24 -22 4 -20 4 -19 6 5 1 24 -3 27 -28 27 -17 0 -32 -4 -35 -8z"/>
<path d="M1930 2250 l0 -80 35 0 35 0 0 80 0 80 -35 0 -35 0 0 -80z m58 3 c-2
-55 -6 -68 -20 -71 -16 -3 -18 5 -18 67 0 65 2 71 20 71 19 0 21 -5 18 -67z"/>
<path d="M2030 2250 l0 -81 33 3 32 3 0 75 0 75 -32 3 -33 3 0 -81z m50 0 c0
-63 -2 -70 -20 -70 -18 0 -20 7 -20 70 0 63 2 70 20 70 18 0 20 -7 20 -70z"/>
<path d="M2127 2323 c-4 -3 -7 -39 -7 -80 l0 -73 33 1 c23 1 26 3 10 6 -18 3
-23 11 -23 34 0 19 5 29 15 29 8 0 15 5 15 10 0 6 -7 10 -15 10 -10 0 -15 10
-15 29 0 23 5 31 23 34 20 4 20 4 -4 6 -14 0 -29 -2 -32 -6z"/>
<path d="M4905 2320 c-3 -5 -1 -10 4 -10 6 0 11 5 11 10 0 6 -2 10 -4 10 -3 0
-8 -4 -11 -10z"/>
<path d="M1743 2277 c-79 -33 -71 -49 50 -93 11 -4 17 -1 17 9 0 9 -15 20 -35
27 -19 6 -35 15 -35 20 0 5 16 14 35 20 19 6 35 18 35 26 0 17 -3 17 -67 -9z"/>
<path d="M2200 2291 c0 -7 19 -21 43 -31 l42 -19 -42 -17 c-24 -9 -43 -23 -43
-31 0 -8 4 -13 8 -11 4 2 31 12 60 22 79 30 70 48 -50 92 -11 3 -18 1 -18 -5z"/>
<path d="M5253 2205 c0 -22 2 -30 4 -17 2 12 2 30 0 40 -3 9 -5 -1 -4 -23z"/>
<path d="M5295 2229 c-4 -6 -5 -12 -2 -15 2 -3 7 2 10 11 7 17 1 20 -8 4z"/>
<path d="M5328 2224 c5 -9 8 -26 5 -38 -3 -20 -3 -20 6 -1 8 18 -2 55 -15 55
-3 0 -1 -7 4 -16z"/>
<path d="M5427 2208 c8 -46 13 -48 13 -5 0 21 -4 37 -10 37 -5 0 -7 -14 -3
-32z"/>
<path d="M5505 2205 c0 -18 3 -31 8 -28 4 2 7 15 7 28 0 13 -3 26 -7 28 -5 3
-8 -10 -8 -28z"/>
<path d="M5595 2229 c-4 -6 -5 -12 -2 -15 2 -3 7 2 10 11 7 17 1 20 -8 4z"/>
<path d="M5667 2233 c-13 -12 -7 -50 9 -63 12 -11 18 -11 31 3 17 16 11 67 -7
67 -6 0 -5 -8 1 -19 14 -22 5 -55 -14 -48 -6 2 -12 18 -12 35 0 18 0 32 -1 32
0 0 -4 -3 -7 -7z"/>
<path d="M5747 2233 c-2 -5 0 -21 4 -38 7 -29 7 -29 8 8 1 35 -3 46 -12 30z"/>
<path d="M5790 2225 c-10 -12 -10 -21 -1 -38 l11 -22 -6 23 c-3 13 0 29 6 37
7 8 10 15 7 15 -2 0 -10 -7 -17 -15z"/>
<path d="M5826 2227 c3 -10 9 -15 12 -12 3 3 0 11 -7 18 -10 9 -11 8 -5 -6z"/>
<path d="M4905 2220 c3 -5 8 -10 11 -10 2 0 4 5 4 10 0 6 -5 10 -11 10 -5 0
-7 -4 -4 -10z"/>
<path d="M5461 2204 c0 -11 3 -14 6 -6 3 7 2 16 -1 19 -3 4 -6 -2 -5 -13z"/>
<path d="M4905 2130 c-3 -5 -1 -10 4 -10 6 0 11 5 11 10 0 6 -2 10 -4 10 -3 0
-8 -4 -11 -10z"/>
<path d="M5242 2128 c-7 -7 -12 -21 -11 -32 1 -18 2 -17 8 4 4 14 13 25 21 25
8 0 17 -11 21 -25 6 -21 7 -22 8 -4 1 19 -16 44 -29 44 -3 0 -11 -5 -18 -12z"/>
<path d="M5316 2132 c-3 -6 2 -9 12 -8 12 1 18 -8 20 -28 3 -25 1 -28 -19 -23
-16 4 -19 3 -11 -5 20 -20 44 -1 40 34 -3 32 -29 50 -42 30z"/>
<path d="M5391 2124 c0 -11 3 -14 6 -6 3 7 2 16 -1 19 -3 4 -6 -2 -5 -13z"/>
<path d="M5437 2133 c-4 -3 -7 -19 -7 -35 0 -31 24 -48 42 -30 8 8 5 9 -11 5
-20 -5 -22 -2 -19 23 2 20 8 29 20 28 10 -1 15 2 12 7 -6 11 -28 12 -37 2z"/>
<path d="M5518 2133 c-2 -5 -1 -24 3 -43 l6 -35 2 43 c1 39 -3 52 -11 35z"/>
<path d="M5568 2133 c-2 -5 -1 -24 3 -43 l6 -35 2 43 c1 39 -3 52 -11 35z"/>
<path d="M5612 2128 c-16 -16 -15 -43 3 -58 17 -14 45 -7 44 12 0 10 -2 10 -6
1 -6 -16 -29 -17 -38 -3 -9 15 4 50 20 50 7 0 16 -8 19 -17 4 -14 4 -14 3 2
-3 23 -27 31 -45 13z"/>
<path d="M5685 2129 c-4 -6 -4 -13 -1 -16 3 -4 6 -1 6 6 0 8 8 11 20 8 11 -3
18 -1 14 4 -7 12 -31 11 -39 -2z"/>
<path d="M5768 2133 c-2 -5 -1 -24 3 -43 l6 -35 2 43 c1 39 -3 52 -11 35z"/>
<path d="M5198 2095 c2 -19 6 -35 8 -35 2 0 4 16 4 35 0 19 -4 35 -8 35 -4 0
-6 -16 -4 -35z"/>
<path d="M5680 2082 c0 -18 29 -27 43 -13 9 9 8 11 -7 5 -11 -4 -21 -2 -27 7
-6 10 -9 11 -9 1z"/>
<path d="M2050 1995 l0 -85 30 0 c26 0 30 3 29 28 -2 23 -2 24 -6 5 -3 -15
-12 -23 -24 -23 -18 0 -20 6 -17 72 3 75 20 100 37 56 10 -23 10 -23 10 5 1
24 -3 27 -29 27 l-30 0 0 -85z"/>
<path d="M2147 2073 c-4 -3 -7 -42 -7 -85 l0 -78 35 0 35 0 0 85 0 85 -28 0
c-16 0 -32 -3 -35 -7z m48 -78 c0 -63 -2 -70 -20 -70 -17 0 -20 8 -23 59 -4
70 2 89 25 84 15 -3 18 -15 18 -73z"/>
<path d="M2240 1995 c0 -82 1 -85 23 -85 36 0 47 19 47 85 0 66 -11 85 -47 85
-22 0 -23 -3 -23 -85z m45 -1 c0 -57 -3 -69 -17 -72 -16 -3 -18 5 -18 66 0 38
3 72 7 76 18 18 28 -6 28 -70z"/>
<path d="M2334 2067 c-3 -8 -4 -45 -2 -83 3 -69 3 -69 33 -71 20 -1 23 0 8 4
-18 3 -23 11 -23 38 0 24 5 35 18 38 16 4 16 5 0 6 -14 1 -18 10 -18 35 0 28
4 35 23 39 19 4 18 4 -6 6 -15 0 -30 -5 -33 -12z"/>
<path d="M5248 2063 c7 -3 16 -2 19 1 4 3 -2 6 -13 5 -11 0 -14 -3 -6 -6z"/>
<path d="M1941 2023 c-19 -74 -24 -113 -13 -113 12 0 28 48 38 113 4 24 3 37
-4 37 -6 0 -16 -17 -21 -37z"/>
<path d="M1838 2023 c-32 -15 -58 -32 -58 -38 0 -11 89 -55 111 -55 22 0 6 22
-26 36 -19 8 -35 16 -35 19 0 3 16 11 35 19 19 8 35 22 35 30 0 9 -1 16 -2 15
-2 0 -29 -12 -60 -26z"/>
<path d="M2410 2030 c0 -6 12 -15 28 -21 15 -5 34 -12 42 -16 10 -4 2 -12 -27
-25 -40 -17 -57 -38 -32 -38 23 0 109 43 109 55 0 7 -22 22 -49 34 -55 23 -71
26 -71 11z"/>
<path d="M4905 2030 c3 -5 8 -10 11 -10 2 0 4 5 4 10 0 6 -5 10 -11 10 -5 0
-7 -4 -4 -10z"/>
<path d="M5157 2029 c-18 -10 -24 -54 -8 -63 4 -3 6 6 3 20 -5 26 13 48 30 38
12 -8 9 -48 -4 -64 -11 -12 -10 -12 5 -1 35 27 12 91 -26 70z"/>
<path d="M5220 2019 c0 -5 5 -7 10 -4 6 3 10 8 10 11 0 2 -4 4 -10 4 -5 0 -10
-5 -10 -11z"/>
<path d="M5256 2017 c3 -10 9 -15 12 -12 3 3 0 11 -7 18 -10 9 -11 8 -5 -6z"/>
<path d="M5357 1998 c8 -46 13 -48 13 -5 0 21 -4 37 -10 37 -5 0 -7 -14 -3
-32z"/>
<path d="M5407 1998 c8 -46 13 -48 13 -5 0 21 -4 37 -10 37 -5 0 -7 -14 -3
-32z"/>
<path d="M5446 2014 c-9 -24 -8 -31 10 -49 12 -12 19 -13 30 -4 16 13 19 55 5
63 -5 4 -7 -3 -4 -14 3 -11 2 -27 -1 -37 -6 -16 -8 -16 -24 0 -14 14 -14 21
-4 37 7 11 8 20 3 20 -5 0 -12 -7 -15 -16z"/>
<path d="M5533 1995 c0 -22 2 -30 4 -17 2 12 2 30 0 40 -3 9 -5 -1 -4 -23z"/>
<path d="M5612 2011 c9 -15 9 -23 -1 -35 -8 -10 -9 -16 -3 -16 6 0 13 8 17 19
6 21 -3 51 -16 51 -5 0 -4 -9 3 -19z"/>
<path d="M5650 2019 c0 -5 5 -7 10 -4 6 3 10 8 10 11 0 2 -4 4 -10 4 -5 0 -10
-5 -10 -11z"/>
<path d="M5697 2023 c-9 -9 -9 -51 1 -56 4 -3 7 10 7 29 0 19 0 34 -1 34 0 0
-4 -3 -7 -7z"/>
<path d="M5735 1995 c0 -18 3 -31 8 -28 4 2 7 15 7 28 0 13 -3 26 -7 28 -5 3
-8 -10 -8 -28z"/>
<path d="M5256 1973 c-6 -14 -5 -15 5 -6 7 7 10 15 7 18 -3 3 -9 -2 -12 -12z"/>
<path d="M5220 1970 c0 -5 5 -10 11 -10 5 0 7 5 4 10 -3 6 -8 10 -11 10 -2 0
-4 -4 -4 -10z"/>
<path d="M4905 1940 c-3 -5 -1 -10 4 -10 6 0 11 5 11 10 0 6 -2 10 -4 10 -3 0
-8 -4 -11 -10z"/>
<path d="M5095 1919 c-4 -6 -4 -13 -1 -16 3 -4 6 -1 6 6 0 8 8 11 20 8 11 -3
18 -1 14 4 -7 12 -31 11 -39 -2z"/>
<path d="M5177 1893 c8 -52 13 -54 13 -5 0 23 -4 42 -9 42 -6 0 -7 -17 -4 -37z"/>
<path d="M5227 1893 c8 -52 13 -54 13 -5 0 23 -4 42 -9 42 -6 0 -7 -17 -4 -37z"/>
<path d="M5278 1923 c-2 -5 -1 -24 3 -43 l6 -35 2 43 c1 39 -3 52 -11 35z"/>
<path d="M5322 1918 c-27 -27 0 -77 34 -64 10 4 14 16 12 38 -3 35 -25 47 -46
26z m38 -28 c0 -32 -26 -43 -36 -15 -9 21 3 45 21 45 10 0 15 -10 15 -30z"/>
<path d="M5396 1921 c-4 -5 2 -7 13 -4 20 5 34 -18 25 -42 -7 -17 -30 -20 -37
-5 -3 6 -4 5 -3 -2 4 -22 34 -21 46 1 18 35 -24 85 -44 52z"/>
<path d="M5470 1920 c0 -5 5 -10 10 -10 6 0 10 5 10 10 0 6 -4 10 -10 10 -5 0
-10 -4 -10 -10z"/>
<path d="M5514 1904 c-9 -35 18 -63 40 -44 9 7 16 22 15 34 -1 19 -2 18 -8 -4
-9 -31 -35 -33 -39 -2 -2 16 3 25 20 31 l23 10 -22 0 c-16 1 -24 -6 -29 -25z"/>
<path d="M5595 1921 c-4 -7 0 -8 10 -4 10 3 21 0 27 -8 8 -12 9 -11 5 1 -5 18
-33 25 -42 11z"/>
<path d="M5671 1914 c0 -11 3 -14 6 -6 3 7 2 16 -1 19 -3 4 -6 -2 -5 -13z"/>
<path d="M5091 1877 c-1 -21 26 -34 41 -19 8 8 5 9 -10 6 -14 -4 -22 0 -25 13
-4 17 -5 17 -6 0z"/>
<path d="M5630 1871 c0 -8 -8 -11 -20 -8 -11 3 -18 1 -14 -4 3 -5 11 -9 19 -9
16 0 30 18 21 27 -3 4 -6 1 -6 -6z"/>
<path d="M4905 1840 c3 -5 8 -10 11 -10 2 0 4 5 4 10 0 6 -5 10 -11 10 -5 0
-7 -4 -4 -10z"/>
<path d="M4730 1741 c0 -26 -4 -30 -32 -33 -22 -2 -34 -9 -36 -20 -3 -15 4
-18 32 -18 34 0 36 -2 36 -35 0 -28 4 -35 20 -35 16 0 20 7 20 35 0 33 2 35
36 35 28 0 35 3 32 18 -2 11 -14 18 -36 20 -28 3 -32 7 -32 33 0 22 -5 29 -20
29 -15 0 -20 -7 -20 -29z"/>
<path d="M4905 1750 c-3 -5 -1 -10 4 -10 6 0 11 5 11 10 0 6 -2 10 -4 10 -3 0
-8 -4 -11 -10z"/>
<path d="M4905 1700 c-3 -5 -1 -10 4 -10 6 0 11 5 11 10 0 6 -2 10 -4 10 -3 0
-8 -4 -11 -10z"/>
<path d="M5533 1683 c9 -2 23 -2 30 0 6 3 -1 5 -18 5 -16 0 -22 -2 -12 -5z"/>
<path d="M5422 1672 c-9 -7 -8 -13 8 -27 26 -24 25 -37 -5 -65 l-25 -24 -30
29 -30 29 -70 -69 c-65 -65 -69 -70 -53 -87 23 -26 32 -23 80 24 l43 42 30
-29 30 -29 53 52 c53 52 53 53 72 32 21 -24 35 -26 35 -5 0 8 -6 12 -14 9 -7
-3 -16 2 -19 10 -10 25 -22 19 -77 -35 l-51 -52 -27 27 c-16 14 -32 26 -38 26
-5 0 -26 -18 -47 -41 -21 -22 -44 -38 -50 -36 -27 9 -14 35 43 92 l60 59 30
-29 30 -29 37 36 c35 35 36 38 20 56 -24 26 -22 30 21 35 l37 4 -40 1 c-22 1
-46 -2 -53 -6z"/>
<path d="M4905 1650 c3 -5 8 -10 11 -10 2 0 4 5 4 10 0 6 -5 10 -11 10 -5 0
-7 -4 -4 -10z"/>
<path d="M5562 1625 c0 -16 2 -22 5 -12 2 9 2 23 0 30 -3 6 -5 -1 -5 -18z"/>
<path d="M4905 1510 c-3 -5 -1 -10 4 -10 6 0 11 5 11 10 0 6 -2 10 -4 10 -3 0
-8 -4 -11 -10z"/>
<path d="M4905 1460 c3 -5 8 -10 11 -10 2 0 4 5 4 10 0 6 -5 10 -11 10 -5 0
-7 -4 -4 -10z"/>
<path d="M2630 1410 c0 -5 5 -10 10 -10 6 0 10 5 10 10 0 6 -4 10 -10 10 -5 0
-10 -4 -10 -10z"/>
<path d="M5161 1374 c0 -11 3 -14 6 -6 3 7 2 16 -1 19 -3 4 -6 -2 -5 -13z"/>
<path d="M4815 1350 c3 -5 8 -10 11 -10 2 0 4 5 4 10 0 6 -5 10 -11 10 -5 0
-7 -4 -4 -10z"/>
<path d="M2700 1340 c0 -5 5 -10 11 -10 5 0 7 5 4 10 -3 6 -8 10 -11 10 -2 0
-4 -4 -4 -10z"/>
<path d="M4780 1320 c0 -5 5 -10 10 -10 6 0 10 5 10 10 0 6 -4 10 -10 10 -5 0
-10 -4 -10 -10z"/>
<path d="M4720 1250 c0 -5 5 -10 11 -10 5 0 7 5 4 10 -3 6 -8 10 -11 10 -2 0
-4 -4 -4 -10z"/>
<path d="M2800 1240 c0 -5 5 -10 11 -10 5 0 7 5 4 10 -3 6 -8 10 -11 10 -2 0
-4 -4 -4 -10z"/>
<path d="M2487 1200 c-68 -17 -121 -48 -168 -97 -153 -161 -109 -418 89 -515
60 -30 76 -33 152 -33 79 0 90 3 150 36 192 105 227 349 75 518 -64 71 -205
114 -298 91z m-83 -150 c14 -5 26 -16 26 -23 0 -11 27 -16 118 -21 64 -4 137
-9 161 -13 l43 -6 -7 -71 c-4 -39 -11 -77 -17 -83 -7 -9 -49 -14 -132 -15
l-121 -2 117 -5 c64 -3 120 -9 123 -13 13 -12 -4 -38 -23 -38 -15 0 -18 -5
-15 -24 4 -18 -1 -27 -17 -36 -27 -14 -50 2 -50 36 0 21 -5 24 -35 24 -30 0
-35 -3 -35 -24 0 -54 -61 -58 -69 -5 -1 13 -7 26 -11 29 -4 3 -25 58 -45 123
-33 103 -41 117 -60 117 -32 0 -51 25 -35 45 14 17 47 19 84 5z"/>
<path d="M4865 1194 c-111 -28 -207 -107 -246 -204 -52 -129 -18 -284 82 -374
78 -70 129 -90 234 -90 107 -1 163 21 235 94 74 73 95 127 95 240 0 83 -4 101
-27 145 -60 115 -166 185 -287 191 -36 2 -75 1 -86 -2z m215 -329 l0 -195
-134 0 c-74 0 -141 -3 -150 -6 -14 -5 -16 10 -16 127 l0 133 67 68 67 68 83 0
83 0 0 -195z"/>
<path d="M4961 853 c0 -11 3 -13 6 -5 7 18 53 15 53 -3 0 -10 -10 -15 -30 -15
-16 0 -30 -4 -30 -10 0 -5 16 -10 35 -10 32 0 35 2 35 30 0 28 -3 30 -35 30
-27 0 -35 -4 -34 -17z"/>
<path d="M4887 835 c-40 -28 -46 -42 -20 -52 11 -4 26 4 45 25 48 55 36 68
-25 27z"/>
<path d="M4832 779 c2 -7 10 -15 17 -17 8 -3 12 1 9 9 -2 7 -10 15 -17 17 -8
3 -12 -1 -9 -9z"/>
<path d="M4625 1140 c3 -5 8 -10 11 -10 2 0 4 5 4 10 0 6 -5 10 -11 10 -5 0
-7 -4 -4 -10z"/>
<path d="M2965 1070 c-3 -5 -1 -10 4 -10 6 0 11 5 11 10 0 6 -2 10 -4 10 -3 0
-8 -4 -11 -10z"/>
<path d="M4560 1070 c0 -5 5 -10 10 -10 6 0 10 5 10 10 0 6 -4 10 -10 10 -5 0
-10 -4 -10 -10z"/>
<path d="M3030 1000 c0 -5 5 -10 10 -10 6 0 10 5 10 10 0 6 -4 10 -10 10 -5 0
-10 -4 -10 -10z"/>
<path d="M3065 970 c-3 -5 -1 -10 4 -10 6 0 11 5 11 10 0 6 -2 10 -4 10 -3 0
-8 -4 -11 -10z"/>
<path d="M4435 930 c-3 -5 -1 -10 4 -10 6 0 11 5 11 10 0 6 -2 10 -4 10 -3 0
-8 -4 -11 -10z"/>
<path d="M3135 900 c-3 -5 -1 -10 4 -10 6 0 11 5 11 10 0 6 -2 10 -4 10 -3 0
-8 -4 -11 -10z"/>
<path d="M4370 860 c0 -5 5 -10 10 -10 6 0 10 5 10 10 0 6 -4 10 -10 10 -5 0
-10 -4 -10 -10z"/>
<path d="M3240 820 c0 -5 5 -10 11 -10 5 0 7 5 4 10 -3 6 -8 10 -11 10 -2 0
-4 -4 -4 -10z"/>
<path d="M3430 820 c0 -5 5 -10 11 -10 5 0 7 5 4 10 -3 6 -8 10 -11 10 -2 0
-4 -4 -4 -10z"/>
<path d="M3525 820 c-3 -5 -1 -10 4 -10 6 0 11 5 11 10 0 6 -2 10 -4 10 -3 0
-8 -4 -11 -10z"/>
<path d="M3575 820 c-3 -5 -1 -10 4 -10 6 0 11 5 11 10 0 6 -2 10 -4 10 -3 0
-8 -4 -11 -10z"/>
<path d="M3620 820 c0 -5 5 -10 11 -10 5 0 7 5 4 10 -3 6 -8 10 -11 10 -2 0
-4 -4 -4 -10z"/>
<path d="M3905 820 c-3 -5 -1 -10 4 -10 6 0 11 5 11 10 0 6 -2 10 -4 10 -3 0
-8 -4 -11 -10z"/>
<path d="M4095 820 c-3 -5 -1 -10 4 -10 6 0 11 5 11 10 0 6 -2 10 -4 10 -3 0
-8 -4 -11 -10z"/>
<path d="M4190 820 c0 -5 5 -10 11 -10 5 0 7 5 4 10 -3 6 -8 10 -11 10 -2 0
-4 -4 -4 -10z"/>
<path d="M4285 820 c-3 -5 -1 -10 4 -10 6 0 11 5 11 10 0 6 -2 10 -4 10 -3 0
-8 -4 -11 -10z"/>
<path d="M4335 820 c-3 -5 -1 -10 4 -10 6 0 11 5 11 10 0 6 -2 10 -4 10 -3 0
-8 -4 -11 -10z"/>
<path d="M3720 725 c-7 -8 -20 -15 -29 -15 -10 0 -32 -16 -51 -35 -36 -37 -64
-45 -74 -19 -8 20 -55 15 -70 -8 -24 -39 44 -79 74 -44 7 9 28 16 46 16 27 0
42 -8 70 -40 22 -24 45 -40 59 -40 13 0 25 -7 29 -15 3 -8 17 -15 31 -15 22 0
25 4 25 35 0 32 -2 35 -30 35 -20 0 -30 -5 -30 -15 0 -24 -34 -17 -63 13 -15
15 -27 31 -27 35 0 4 38 7 85 7 81 0 85 -1 85 -22 0 -22 0 -22 27 4 26 27 26
28 8 48 -21 24 -35 26 -35 5 0 -12 -19 -15 -112 -15 l-112 0 29 30 c32 33 60
39 69 14 7 -20 45 -15 59 8 22 35 -36 66 -63 33z"/>
<path d="M3040 661 l0 -71 -70 0 -70 0 0 -45 0 -45 70 0 70 0 0 -70 0 -70 51
0 50 0 -2 68 -3 67 67 3 67 3 0 44 0 45 -65 0 -64 0 -3 68 -3 67 -47 3 -48 3
0 -70z m80 -21 l0 -70 65 0 c62 0 65 -1 65 -25 0 -23 -4 -24 -62 -27 l-63 -3
-3 -67 c-3 -68 -3 -68 -32 -68 l-30 0 0 70 0 70 -70 0 c-68 0 -70 1 -70 25 0
24 2 25 70 25 l70 0 0 70 0 70 30 0 30 0 0 -70z"/>
</g>
</svg>
